<?xml version="1.0" encoding="UTF-8"?>
<svg id="_レイヤー_2" data-name="レイヤー_2" xmlns="http://www.w3.org/2000/svg" version="1.1" viewBox="0 0 1215.55 376.63">
  <!-- Generator: Adobe Illustrator 30.2.1, SVG Export Plug-In . SVG Version: 2.1.1 Build 1)  -->
  <defs>
    <style>
      .st0 {
        fill: none;
      }

      .st1 {
        fill: #3aa491;
      }

      .st2 {
        fill: #1c9480;
      }

      .st3 {
        fill: #63c2b0;
      }
    </style>
  </defs>
  <g>
    <g>
      <path class="st3" d="M243.99,46.9c-4.87-12.63-17.88-12.2-29.03-14.29-5.98-1.17-11.26-4.46-14.66-9.59-4.07-6.02-7.7-13.28-14.02-17.47-10.88-7.83-26.92-7.35-37.23,1.32-5.24,4.03-8.32,10.23-11.73,15.66-12.64,20.84-40.9,2.31-45.51,33.36-1.24,9.89-1.48,20.87,1.93,30.38,4.17,11.52,17.46,13.04,28.12,13.38,8.37.26,16.94.2,25,.25,12.9.17,27.31-.17,39.64-.17,9.14-.11,17.44.05,26.68-.03,9.57-.18,20.92-.69,27.54-8.63,7.9-9.15,7.88-32.23,3.33-44.01l-.07-.16ZM180.52,33.23c-2.43,8.91-14.46,11.86-20.9,5.28-8.97-8.92.08-23.26,11.98-20.33,6.49,1.37,10.84,8.48,8.97,14.87l-.05.19Z"/>
      <g>
        <path class="st1" d="M339.97,77c-7.29-22.35-27.33-26.39-48.67-25.95-7.63.18-17.27-.23-21.75,7.06-3.43,5.53-3.84,14.1-1.78,20,3.03,9.78,15.7,8.23,24.07,9.52,12.97,1.15,15.81,9.97,15.92,22.09.16,25.82.06,55.05,0,80.47.33,35.73-17.49,26.65-44.29,26.33-46.6,0-93.58-1.28-139.53-.59-16.53,0-48.67,0-69.11,0-8.8-.3-17,.7-19.93-4.27-1.31-2.71-1.59-6.67-1.67-10.22-.15-24.06,0-75.57-.06-98.96-.16-7.2.65-14.12,8.81-15.77,7.62-2.32,18.24-.43,24.5-6.64,5.71-6.43,6.69-18.65.56-25.07-6.56-5.76-23.3-3.82-33.02-3.3-16.27.85-29.14,12.57-32.9,28.16C-.31,86.2.06,90.04,0,97.67c.08,62.11.2,170.6.24,206.39.02,8.32-.07,19.29-.04,29.05.04,10.4.1,23.67,5.87,30.82,8.23,11.26,20.02,12.99,33.13,12.59,14.73.08,35.63,0,53.1.07,55.51.13,110.8-.29,167.82-.36,13.46-.02,26.35-.08,39.45-.11,14.89-.2,24.06,2.17,34.66-10.82,4.02-4.6,7.17-10.44,7.62-16.16.58-21.34-.29-60.69-.19-113.44-.08-31.61-.24-68.56-.33-98.35-.07-22.36-.13-40.14-.16-48.89-.04-3.96.04-7.35-1.17-11.35l-.03-.11ZM300.83,349.13c-23.31,5.38-49.29,2.14-73.37,2.92-48.2,2.53-96.45,1.79-144.7,1.76-11.44-.12-23.12-.89-34.3-1.67-11.7-.49-16.31-5.78-16.51-17.26-.47-23.24.14-46.63.25-69.89.63-9.11-.55-24.75,10.74-26.59,31.81-.71,90.6-.59,129.31-.32,12.7,1.44,26.39,1.98,39.06,1.41,13.17-.35,24.4.53,38.18.48,15.47.29,31.88-.44,47.2.61,7.51.4,11.08,3.79,11.37,11.16.58,8.32.17,16.62.3,25.3.04,16.47.01,36.34.04,52.13-.15,10.46.72,16.6-7.46,19.91l-.13.05Z"/>
        <path class="st1" d="M278.92,302.4c-2.89-2.05-7.62-2.42-13.6-2.58-6.89-.05-14.54-.14-21.39.08-4.96.32-10.27.4-13.44,4.47-3.69,5.05-3.61,15.17,1.35,19.4,5.54,4.03,13.81,2.81,20.53,3.14,7.79-.04,15.95.23,21.38-.7,6.27-.69,9.79-5.8,9.77-11.92.17-4.33-.91-9.28-4.48-11.81l-.11-.08Z"/>
        <path class="st1" d="M58.61,169.32c-1.93,4.8-1.85,11.55,1.4,15.87,4.78,5.83,15.31,4.18,23.87,4.56,9.54-.43,22.65,1.74,27.68-4.98,3.82-5.76,3.59-15.95-2.8-19.74-5.59-2.72-11.15-2.21-18.95-2.42-6.23.02-12.75-.15-17.99.16-6.57.46-10.72,1.27-13.16,6.43l-.06.13Z"/>
      </g>
    </g>
    <g>
      <path class="st0" d="M693.69,230.32c-2.18-14.09-25.18-12.53-36.45-11.1-10.19,1.31-20.76,5.21-26.51,13.84-7.69,11.81-.04,24.75,12.87,27.76,13.97,3.64,31.13.61,41.21-9.77,5.16-5.17,9.3-13.4,8.88-20.58l-.02-.15Z"/>
      <path class="st0" d="M1092.61,178.44c-9.06,10.38-14.82,22.84-14.8,36.26.4,11.08,7.13,21.53,14.44,29.87,23.02,25.67,66.2,16.87,76.58-16.36,5.62-16.9,2.34-37.17-9.56-50.53-17.77-20.19-48.9-19.1-66.52.61l-.13.15Z"/>
      <path class="st2" d="M810.35,127.65c-7.17-2.18-16.5-1.17-22.19,2.72-6.34,4.13-5.88,11.65-6.04,18.55.44,34.85-.78,98.41.61,131.92,2.07,15.8,27.25,16.73,36.53,6.97,5.42-5.62,3.95-16.55,4.19-25.12.02-31.47.02-71.81.03-101.14,0-4.49.02-8.53-.02-12.84.24-11.33-2.73-18.17-12.97-21.01l-.15-.04Z"/>
      <path class="st2" d="M796.85,56.61c-17.12,4.18-25.08,24.69-15.36,39.33,13.68,20.66,47.39,11.5,47.92-13.63.56-17.06-15.81-30.15-32.37-25.75l-.19.05Z"/>
      <path class="st2" d="M732.51,169.64c-10.09-38.77-48.77-52.14-86.05-46.76-14.31,2.35-33.32,5.12-42.58,17.21-8.26,12.06,1.5,26.82,15.6,25.97,18.83-1.4,39.57-11.99,58.38-1.99,9.38,5.05,16.9,16.26,6.36,21.77-8.82,4.26-20.06,2.77-30.57,3.92-20.23,1.65-42.4,6.73-56.47,22.42-20.38,22.55-14.15,61.72,13.06,75.8,23.34,12.95,50.57,9.86,73.84-.55,13.08-5.24,25.1,8.49,38.51,4.9,13.6-3.46,11.78-13.19,12.21-30.06.08-8.7.17-17.41.26-26.2.11-9.82.2-20.89.3-30.16.11-13.65.51-25.15-2.79-36.11l-.05-.16ZM692.57,238.3c-6.36,20.83-32.84,28.49-52.03,21.51-10.2-3.59-15.98-14.48-11.13-24.36,4.52-9.65,16.33-14.66,26.62-16.06,13.75-2.23,44.04-3.03,36.6,18.74l-.06.17Z"/>
      <path class="st2" d="M547.53,260.41c-6.94-5.24-16.86-4.14-25.32-4.44-13.53-.42-28.36.95-41.56-.96-11.07-2.67-.17-11.51,5.99-19.04,2.47-2.77,4.86-5.45,7.38-8.28,8.97-10.09,18.3-20.8,27.29-31.01,6.84-7.79,12.07-13.54,16.92-18.88,3.99-4.43,7.52-8.76,10.4-14.2,5.91-10.3,7.76-26.19-2.58-34.25-5.2-4.09-16.46-3.34-24.52-3.35-21.35.12-50.3.37-70.94.49-13.02.11-21.34-.2-25.8,5.72-5.91,8.12-4.5,22.64,4.59,28.18,4.41,2.7,10.94,3.29,18.94,3.48,9.64.17,22.69.1,32.33.21,4.77.28,11.7-.38,13.66,2.1.32.63.14,1.45-.45,2.51-1.03,1.84-2.85,3.84-4.45,5.72-13.81,15.56-42.67,47.86-60.46,67.84-4.78,5.46-9.21,10.12-12.14,16.59-3.29,7.13-3.94,17.23-1.24,24.05,4.08,10.88,16.52,9.11,26.32,9.38,18.38.16,39.16.37,58.15.54,7.35.07,14.6.13,21.87.2,6.71.04,12.04.22,16.57-.44,2.88-.43,5.42-1.25,7.7-2.89,8.45-6.43,9.64-21.98,1.45-29.16l-.1-.09Z"/>
      <path class="st2" d="M1212.1,186.72c-23.48-84.88-144.78-86.75-172.44-3.72-11.42,34.41-2.33,75.45,27.56,97.53,10.94,8.32,24.06,13.86,37.53,16.57,69.55,13.87,125.37-40.62,107.4-110.19l-.05-.19ZM1170.36,222.51c-2.63,13.04-10.66,24.95-22.18,31.28-17.37,9.69-41.23,6.74-54.87-8.05-8.99-10.05-16.5-21.55-15.38-34.86,1.41-14.17,8.34-27,19.08-36.73,36.79-29.78,82.36,3.85,73.39,48.16l-.04.2Z"/>
    </g>
    <path class="st3" d="M236.92,138.71c-4.92,7.07.38,19.71-5.82,25.99-4.2,3.21-9.29,2.48-14.79,2.72-5.52-.15-11.45.5-16.46-1.48-9.01-4.6-2.66-19.36-7.54-26.82-2.61-3.69-7.71-3.45-11.87-3.65-7.55-.02-16.31-.16-23.79.11-8.19.19-9.38,3.12-9.33,10.81-.05,5.19-.01,12.62-.02,20.5,0,11.64-.01,24.15.01,31.66.03,4.25.13,6.98.82,8.49.98,2.12,3.33,1.99,5.61,2.09,24.58.07,100.84.01,121.42,0,7.29.28,6.33-3.48,6.55-11.31-.03-13.25.06-37.52-.02-51.79-.15-3.1.09-6.69-2.32-8.73-3.4-2.23-8.13-1.64-12.16-1.85-5.72-.01-13-.04-18.64.02-3.97.19-8.85-.04-11.57,3.15l-.08.1Z"/>
    <path class="st3" d="M146.96,272.9c-4.92,7.08.35,19.61-5.73,25.96-4.13,3.26-9.19,2.53-14.66,2.78-2.62,0-5.32.01-7.79-.05-19.69.47-11.6-14.21-15.57-26.64-1.82-5.08-7.88-5.11-12.52-5.25-5.81-.08-13.43-.04-19.29-.03-9.48.3-14.43-.6-14.04,10.94-.05,13.67-.03,39.75-.01,51.97.03,4.29.12,7.06.79,8.6,1,2.23,3.37,2.04,5.75,2.16,19.22.05,95.83,0,119.01.02,9.08.3,8.74-1.24,8.85-11.33-.03-13.25.06-37.52-.02-51.79-.15-3.1.09-6.69-2.32-8.73-3.4-2.23-8.13-1.64-12.16-1.85-5.72-.01-13-.04-18.64.02-3.97.19-8.84-.05-11.57,3.12l-.08.1Z"/>
  </g>
  <rect class="st2" x="873.3" y="56.45" width="41.74" height="236.59" rx="17.18" ry="17.18"/>
  <path class="st2" d="M1010.24,121.99c-5.06-5.72-18.63-4.03-29.09-1.17-20.92,6.24-42.19,17.66-58.71,32.02-25.22,21.77-34.82,53.12-16.15,82.41,17.41,27.22,53.9,47.47,85.04,55.87,8.45,2.03,18.22,2.36,24.7-8.6,14.93-25.25-76.86-48.18-68.23-84.11,5.71-29.37,85.39-43.36,62.5-76.35l-.06-.07Z"/>
</svg>